PathFileType	4	(X/Y/Z)	C:/Users/opensim2020/Desktop/walking_exp_matlab/subject06_walking19_straight_02.trc																																																																																																																																																	
DataRate	CameraRate	NumFrames	NumMarkers	Units	OrigDataRate	OrigDataStartFrame	OrigNumFrames																																																																																																																																													
100	100	4	49	mm	100	2276	332																																																																																																																																													
Frame#	Time	LFHD			RFHD			LBHD			RBHD			C7			T10			CLAV			STRN			RBAK			LSHO			LUPA			LELB			LFRM			LWRA			LWRB			LFIN			RSHO			RUPA			RELB			RFRM			RWRA			RWRB			RFIN			LASI			RASI			LPSI			RPSI			LTHI			LKNE			LTIB			LANK			LHEE			LTOE			RTHI			RKNE			RTIB			RANK			RHEE			RTOE			*39			*40			*41			*42			*43			*44			*45			*46			*47			*48		
		X1	Y1	Z1	X2	Y2	Z2	X3	Y3	Z3	X4	Y4	Z4	X5	Y5	Z5	X6	Y6	Z6	X7	Y7	Z7	X8	Y8	Z8	X9	Y9	Z9	X10	Y10	Z10	X11	Y11	Z11	X12	Y12	Z12	X13	Y13	Z13	X14	Y14	Z14	X15	Y15	Z15	X16	Y16	Z16	X17	Y17	Z17	X18	Y18	Z18	X19	Y19	Z19	X20	Y20	Z20	X21	Y21	Z21	X22	Y22	Z22	X23	Y23	Z23	X24	Y24	Z24	X25	Y25	Z25	X26	Y26	Z26	X27	Y27	Z27	X28	Y28	Z28	X29	Y29	Z29	X30	Y30	Z30	X31	Y31	Z31	X32	Y32	Z32	X33	Y33	Z33	X34	Y34	Z34	X35	Y35	Z35	X36	Y36	Z36	X37	Y37	Z37	X38	Y38	Z38	X39	Y39	Z39	X40	Y40	Z40	X41	Y41	Z41	X42	Y42	Z42	X43	Y43	Z43	X44	Y44	Z44	X45	Y45	Z45	X46	Y46	Z46	X47	Y47	Z47	X48	Y48	Z48	X49	Y49	Z49
																																																																																																																																																				
84	0.83	-761.05597	1668.63391	1001.1767	-742.84064	1660.56677	1132.00818	-887.29388	1602.14404	1019.15186	-867.90558	1599.30786	1147.48999	-871.82715	1453.60913	1069.31042	-905.91394	1125.84448	1078.43384	-762.46393	1376.70203	1064.5144	-725.44696	1199.24719	1058.72107	-941.34485	1284.45166	1152.79321	-821.95532	1407.46069	904.44312	-839.57098	1204.11646	835.85944	-850.1507	1092.13599	825.5163	-830.43683	944.40985	796.37097	-761.30072	830.32361	823.17883	-828.48718	825.06952	799.02881	-786.07483	745.16888	787.41681	-796.0965	1406.53882	1227.51221	-818.35333	1204.54272	1314.90161	-802.59027	1082.88977	1322.12817	-780.53986	964.05383	1333.57629	-721.0705	827.98566	1290.17261	-767.96844	826.75995	1338.15344	-728.32819	752.17041	1333.10571	-735.70441	965.5014	959.21124	-729.1687	964.56177	1180.37939	-893.41754	993.75287	991.66779	-881.43286	996.23248	1160.48926	-756.94025	654.92352	893.42413	-716.14166	497.14838	917.50977	-796.07062	257.439	918.17401	-823.5246	85.23866	950.4939	-855.52515	69.22834	1002.66595	-688.91394	46.16256	922.48767	-802.70618	630.22223	1219.60974	-811.9035	505.14252	1193.39014	-890.77612	249.53087	1183.86157	-935.82861	68.59241	1134.70801	-981.95044	46.57862	1094.00305	-784.72156	32.14621	1120.77417	-855.79651	1698.88086	1073.08179	NaN	NaN	NaN	NaN	NaN	NaN	NaN	NaN	NaN	NaN	NaN	NaN	NaN	NaN	NaN	NaN	NaN	NaN	NaN	NaN	NaN	NaN	NaN	NaN	NaN	NaN	NaN
85	0.84	-755.83948	1668.11731	1000.43024	-737.34357	1660.20923	1131.22266	-882.22882	1601.89673	1018.80481	-862.57336	1599.25854	1147.14294	-866.97021	1453.34875	1069.34253	-901.3526	1125.55298	1078.68652	-757.68329	1376.3269	1064.30688	-720.86749	1198.89319	1058.78552	-936.39508	1284.46277	1153.37244	-817.69519	1407.02991	904.42957	-836.77039	1204.10974	835.66266	-848.25958	1092.22034	825.13629	-830.15076	944.20355	796.4743	-763.20557	829.08429	824.30359	-830.18146	824.80328	799.23987	-788.81696	744.28931	788.39374	-790.68243	1406.52393	1227.29395	-811.51575	1204.45093	1314.86682	-794.94641	1082.94116	1322.23364	-772.19232	964.24371	1333.77161	-712.35468	828.34167	1290.3772	-758.88635	827.03723	1338.63257	-718.84247	752.68665	1333.63184	-730.05499	965.7821	959.46655	-724.92444	964.19958	1180.77466	-888.49878	993.44635	991.77551	-877.04083	995.77441	1160.58923	-749.05115	656.05054	892.55249	-707.15045	498.23935	916.5658	-779.237	256.02698	917.03619	-801.89362	83.10764	948.94702	-833.96924	66.48962	1000.83356	-665.93506	47.07627	922.48328	-799.53674	629.8421	1219.55737	-809.39758	504.77399	1193.51941	-889.85059	249.53181	1183.91003	-935.71063	68.83548	1134.8219	-981.86017	46.94096	1093.91003	-784.67633	32.10716	1120.82446	-850.36652	1698.67322	1072.49182	NaN	NaN	NaN	NaN	NaN	NaN	NaN	NaN	NaN	NaN	NaN	NaN	NaN	NaN	NaN	NaN	NaN	NaN	NaN	NaN	NaN	NaN	NaN	NaN	NaN	NaN	NaN
86	0.85	-750.62549	1667.5321	999.60986	-731.90277	1659.82349	1130.38379	-877.16132	1601.63684	1018.40942	-857.37579	1599.1488	1146.90833	-862.0993	1452.99841	1069.3114	-897.01654	1125.2749	1078.83508	-752.96893	1375.87805	1063.98401	-716.22687	1198.45898	1058.82764	-931.41376	1284.42468	1153.90332	-813.37457	1406.59082	904.3573	-833.80243	1204.10217	835.30304	-846.19806	1092.41724	824.50659	-829.24457	944.14526	796.58984	-764.68097	828.13788	826.00385	-831.52448	824.6189	799.47998	-791.02539	743.48883	789.59088	-785.30646	1406.42773	1226.9989	-804.87018	1204.4541	1314.87781	-787.36627	1083.01917	1322.29395	-763.91626	964.49835	1333.98157	-703.51862	828.77802	1290.56091	-749.73969	827.40112	1339.08362	-709.37933	753.20538	1334.03625	-725.23376	965.71027	959.98444	-720.65826	963.86517	1181.16125	-883.59619	993.15222	991.78558	-872.65271	995.31158	1160.62561	-742.45026	656.64282	891.91095	-698.41187	499.32407	915.68842	-763.27881	254.90584	915.20599	-780.35754	81.31715	947.34363	-812.71545	64.27338	998.65002	-643.12268	47.74397	922.84985	-796.44257	629.44812	1219.32959	-806.97302	504.38864	1193.69434	-888.93579	249.52103	1184.01245	-935.62506	69.12673	1134.80432	-981.75677	47.43665	1093.91663	-784.62537	32.00344	1120.89307	-844.99371	1698.44983	1071.85852	NaN	NaN	NaN	NaN	NaN	NaN	NaN	NaN	NaN	NaN	NaN	NaN	NaN	NaN	NaN	NaN	NaN	NaN	NaN	NaN	NaN	NaN	NaN	NaN	NaN	NaN	NaN
87	0.86	-745.51984	1666.89978	998.76422	-726.43457	1659.38684	1129.52356	-872.02985	1601.32092	1017.95313	-851.96411	1598.99585	1146.41931	-857.23419	1452.67029	1069.20618	-892.49756	1124.82263	1078.96069	-748.20825	1375.40198	1063.63989	-711.63568	1197.99048	1058.87109	-926.40717	1284.3158	1154.36377	-809.03162	1406.10156	904.24988	-830.81909	1204.11121	834.79559	-844.15808	1092.60303	823.745	-828.28363	943.85583	796.89764	-766.60236	827.17206	827.52039	-832.46747	824.47296	799.62732	-792.95728	742.78137	790.93402	-779.94397	1406.35583	1226.68469	-798.13904	1204.39453	1314.77844	-779.81409	1083.09387	1322.35193	-755.60046	964.75458	1334.19592	-694.57904	829.28552	1290.76489	-740.60132	827.76154	1339.4856	-699.84796	753.80084	1334.42261	-720.44373	965.48926	960.47064	-716.48853	963.51312	1181.53564	-878.73572	992.81482	991.66986	-868.31085	994.85187	1160.5105	-735.9483	657.21674	891.33411	-689.8327	500.21735	914.8858	-746.89923	253.81044	914.14624	-758.97949	79.82962	945.6745	-789.11792	60.57945	998.63489	-620.37262	48.50106	922.83569	-793.18097	629.11377	1219.37427	-804.5481	504.03546	1193.90088	-888.10504	249.59885	1183.95691	-935.44006	69.32869	1134.90466	-981.66412	47.85514	1093.91248	-784.63489	31.86699	1120.9397	-839.56982	1698.1123	1071.21777	NaN	NaN	NaN	NaN	NaN	NaN	NaN	NaN	NaN	NaN	NaN	NaN	NaN	NaN	NaN	NaN	NaN	NaN	NaN	NaN	NaN	NaN	NaN	NaN	NaN	NaN	NaN
